<svg id="Layer_1" data-name="Layer 1" xmlns="http://www.w3.org/2000/svg" xmlns:xlink="http://www.w3.org/1999/xlink" viewBox="0 0 683.2 1146.79"><defs><style>.cls-1,.cls-3,.cls-4,.cls-9{fill:none;}.cls-2{clip-path:url(#clip-path);}.cls-3,.cls-4{stroke:#bebebe;stroke-dasharray:4 4;}.cls-3,.cls-4,.cls-5,.cls-6,.cls-7,.cls-8,.cls-9{stroke-linejoin:round;}.cls-3{stroke-width:0.21px;}.cls-4{stroke-width:0.43px;}.cls-5{fill:#04bf9d;stroke:#04bf9d;}.cls-5,.cls-6,.cls-7,.cls-8{fill-opacity:0.8;stroke-linecap:round;stroke-opacity:0.8;stroke-width:0.71px;}.cls-6{fill:#d2e3f3;stroke:#d2e3f3;}.cls-7{fill:#456c80;stroke:#456c80;}.cls-8{fill:#8b372f;stroke:#8b372f;}.cls-9{stroke:#000;stroke-opacity:0.9;stroke-width:1.49px;}.cls-10{clip-path:url(#clip-path-235);}.cls-11,.cls-12,.cls-16,.cls-18{isolation:isolate;}.cls-11,.cls-19{font-size:15px;}.cls-11,.cls-12,.cls-19{fill:#4d4d4d;}.cls-11,.cls-12,.cls-16,.cls-19,.cls-20,.cls-21{font-family:PingFangSC-Regular-GBpc-EUC-H, PingFang SC;}.cls-12{font-size:10px;}.cls-13{clip-path:url(#clip-path-300);}.cls-14{clip-path:url(#clip-path-301);}.cls-15{clip-path:url(#clip-path-302);}.cls-16{font-size:18px;}.cls-16,.cls-21{fill:#66605c;}.cls-17{clip-path:url(#clip-path-304);}.cls-20{font-size:28px;}.cls-21{font-size:16px;}</style><clipPath id="clip-path" transform="translate(0 -4.69)"><rect class="cls-1" x="114.85" y="175.17" width="555.33" height="912.7"/></clipPath><clipPath id="clip-path-235" transform="translate(0 -4.69)"><rect class="cls-1" width="720" height="1152"/></clipPath><clipPath id="clip-path-300" transform="translate(0 -4.69)"><rect class="cls-1" x="-4" width="720" height="1152"/></clipPath><clipPath id="clip-path-301" transform="translate(0 -4.69)"><rect class="cls-1" x="-2" width="720" height="1152"/></clipPath><clipPath id="clip-path-302" transform="translate(0 -4.69)"><rect class="cls-1" x="4" width="720" height="1152"/></clipPath><clipPath id="clip-path-304" transform="translate(0 -4.69)"><rect class="cls-1" x="-50.63" y="-9" width="720" height="1152"/></clipPath></defs><g class="cls-2"><line class="cls-3" x1="140.09" y1="1083.17" x2="140.09" y2="170.48"/></g><g class="cls-2"><line class="cls-3" x1="284.34" y1="1083.17" x2="284.34" y2="170.48"/></g><g class="cls-2"><line class="cls-3" x1="428.58" y1="1083.17" x2="428.58" y2="170.48"/></g><g class="cls-2"><line class="cls-3" x1="572.82" y1="1083.17" x2="572.82" y2="170.48"/></g><g class="cls-2"><line class="cls-4" x1="114.85" y1="1073.43" x2="670.19" y2="1073.43"/></g><g class="cls-2"><line class="cls-4" x1="114.85" y1="1057.19" x2="670.19" y2="1057.19"/></g><g class="cls-2"><line class="cls-4" x1="114.85" y1="1040.95" x2="670.19" y2="1040.95"/></g><g class="cls-2"><line class="cls-4" x1="114.85" y1="1024.71" x2="670.19" y2="1024.71"/></g><g class="cls-2"><line class="cls-4" x1="114.85" y1="1008.47" x2="670.19" y2="1008.47"/></g><g class="cls-2"><line class="cls-4" x1="114.85" y1="992.23" x2="670.19" y2="992.23"/></g><g class="cls-2"><line class="cls-4" x1="114.85" y1="975.99" x2="670.19" y2="975.99"/></g><g class="cls-2"><line class="cls-4" x1="114.85" y1="959.75" x2="670.19" y2="959.75"/></g><g class="cls-2"><line class="cls-4" x1="114.85" y1="943.51" x2="670.19" y2="943.51"/></g><g class="cls-2"><line class="cls-4" x1="114.85" y1="927.27" x2="670.19" y2="927.27"/></g><g class="cls-2"><line class="cls-4" x1="114.85" y1="911.03" x2="670.19" y2="911.03"/></g><g class="cls-2"><line class="cls-4" x1="114.85" y1="894.79" x2="670.19" y2="894.79"/></g><g class="cls-2"><line class="cls-4" x1="114.85" y1="878.55" x2="670.19" y2="878.55"/></g><g class="cls-2"><line class="cls-4" x1="114.85" y1="862.31" x2="670.19" y2="862.31"/></g><g class="cls-2"><line class="cls-4" x1="114.85" y1="846.07" x2="670.19" y2="846.07"/></g><g class="cls-2"><line class="cls-4" x1="114.85" y1="829.83" x2="670.19" y2="829.83"/></g><g class="cls-2"><line class="cls-4" x1="114.85" y1="813.59" x2="670.19" y2="813.59"/></g><g class="cls-2"><line class="cls-4" x1="114.85" y1="797.35" x2="670.19" y2="797.35"/></g><g class="cls-2"><line class="cls-4" x1="114.85" y1="781.11" x2="670.19" y2="781.11"/></g><g class="cls-2"><line class="cls-4" x1="114.85" y1="764.87" x2="670.19" y2="764.87"/></g><g class="cls-2"><line class="cls-4" x1="114.85" y1="748.63" x2="670.19" y2="748.63"/></g><g class="cls-2"><line class="cls-4" x1="114.85" y1="732.39" x2="670.19" y2="732.39"/></g><g class="cls-2"><line class="cls-4" x1="114.85" y1="716.15" x2="670.19" y2="716.15"/></g><g class="cls-2"><line class="cls-4" x1="114.85" y1="699.91" x2="670.19" y2="699.91"/></g><g class="cls-2"><line class="cls-4" x1="114.85" y1="683.67" x2="670.19" y2="683.67"/></g><g class="cls-2"><line class="cls-4" x1="114.85" y1="667.43" x2="670.19" y2="667.43"/></g><g class="cls-2"><line class="cls-4" x1="114.85" y1="651.19" x2="670.19" y2="651.19"/></g><g class="cls-2"><line class="cls-4" x1="114.85" y1="634.95" x2="670.19" y2="634.95"/></g><g class="cls-2"><line class="cls-4" x1="114.85" y1="618.7" x2="670.19" y2="618.7"/></g><g class="cls-2"><line class="cls-4" x1="114.85" y1="602.46" x2="670.19" y2="602.46"/></g><g class="cls-2"><line class="cls-4" x1="114.85" y1="586.22" x2="670.19" y2="586.22"/></g><g class="cls-2"><line class="cls-4" x1="114.85" y1="569.98" x2="670.19" y2="569.98"/></g><g class="cls-2"><line class="cls-4" x1="114.85" y1="553.74" x2="670.19" y2="553.74"/></g><g class="cls-2"><line class="cls-4" x1="114.85" y1="537.5" x2="670.19" y2="537.5"/></g><g class="cls-2"><line class="cls-4" x1="114.85" y1="521.26" x2="670.19" y2="521.26"/></g><g class="cls-2"><line class="cls-4" x1="114.85" y1="505.02" x2="670.19" y2="505.02"/></g><g class="cls-2"><line class="cls-4" x1="114.85" y1="488.78" x2="670.19" y2="488.78"/></g><g class="cls-2"><line class="cls-4" x1="114.85" y1="472.54" x2="670.19" y2="472.54"/></g><g class="cls-2"><line class="cls-4" x1="114.85" y1="456.3" x2="670.19" y2="456.3"/></g><g class="cls-2"><line class="cls-4" x1="114.85" y1="440.06" x2="670.19" y2="440.06"/></g><g class="cls-2"><line class="cls-4" x1="114.85" y1="423.82" x2="670.19" y2="423.82"/></g><g class="cls-2"><line class="cls-4" x1="114.85" y1="407.58" x2="670.19" y2="407.58"/></g><g class="cls-2"><line class="cls-4" x1="114.85" y1="391.34" x2="670.19" y2="391.34"/></g><g class="cls-2"><line class="cls-4" x1="114.85" y1="375.1" x2="670.19" y2="375.1"/></g><g class="cls-2"><line class="cls-4" x1="114.85" y1="358.86" x2="670.19" y2="358.86"/></g><g class="cls-2"><line class="cls-4" x1="114.85" y1="342.62" x2="670.19" y2="342.62"/></g><g class="cls-2"><line class="cls-4" x1="114.85" y1="326.38" x2="670.19" y2="326.38"/></g><g class="cls-2"><line class="cls-4" x1="114.85" y1="310.14" x2="670.19" y2="310.14"/></g><g class="cls-2"><line class="cls-4" x1="114.85" y1="293.9" x2="670.19" y2="293.9"/></g><g class="cls-2"><line class="cls-4" x1="114.85" y1="277.66" x2="670.19" y2="277.66"/></g><g class="cls-2"><line class="cls-4" x1="114.85" y1="261.42" x2="670.19" y2="261.42"/></g><g class="cls-2"><line class="cls-4" x1="114.85" y1="245.18" x2="670.19" y2="245.18"/></g><g class="cls-2"><line class="cls-4" x1="114.85" y1="228.94" x2="670.19" y2="228.94"/></g><g class="cls-2"><line class="cls-4" x1="114.85" y1="212.7" x2="670.19" y2="212.7"/></g><g class="cls-2"><line class="cls-4" x1="114.85" y1="196.46" x2="670.19" y2="196.46"/></g><g class="cls-2"><line class="cls-4" x1="114.85" y1="180.22" x2="670.19" y2="180.22"/></g><g class="cls-2"><line class="cls-4" x1="212.22" y1="1083.17" x2="212.22" y2="170.48"/></g><g class="cls-2"><line class="cls-4" x1="356.46" y1="1083.17" x2="356.46" y2="170.48"/></g><g class="cls-2"><line class="cls-4" x1="500.7" y1="1083.17" x2="500.7" y2="170.48"/></g><g class="cls-2"><line class="cls-4" x1="644.94" y1="1083.17" x2="644.94" y2="170.48"/></g><g class="cls-2"><circle class="cls-5" cx="460.31" cy="846.07" r="2.81"/></g><g class="cls-2"><circle class="cls-6" cx="533.88" cy="846.07" r="2.81"/></g><g class="cls-2"><circle class="cls-5" cx="445.89" cy="732.39" r="2.81"/></g><g class="cls-2"><circle class="cls-6" cx="430.02" cy="732.39" r="2.81"/></g><g class="cls-2"><circle class="cls-7" cx="474.74" cy="732.39" r="2.81"/></g><g class="cls-2"><circle class="cls-5" cx="389.63" cy="326.38" r="2.81"/></g><g class="cls-2"><circle class="cls-6" cx="395.4" cy="326.38" r="2.81"/></g><g class="cls-2"><circle class="cls-7" cx="432.91" cy="326.38" r="2.81"/></g><g class="cls-2"><circle class="cls-5" cx="454.54" cy="927.27" r="2.81"/></g><g class="cls-2"><circle class="cls-6" cx="470.41" cy="927.27" r="2.81"/></g><g class="cls-2"><circle class="cls-7" cx="468.97" cy="927.27" r="2.81"/></g><g class="cls-2"><circle class="cls-5" cx="438.68" cy="911.03" r="2.81"/></g><g class="cls-2"><circle class="cls-6" cx="510.8" cy="911.03" r="2.81"/></g><g class="cls-2"><circle class="cls-7" cx="467.53" cy="911.03" r="2.81"/></g><g class="cls-2"><circle class="cls-5" cx="443" cy="699.91" r="2.81"/></g><g class="cls-2"><circle class="cls-6" cx="451.66" cy="699.91" r="2.81"/></g><g class="cls-2"><circle class="cls-7" cx="428.58" cy="699.91" r="2.81"/></g><g class="cls-2"><circle class="cls-5" cx="267.03" cy="196.46" r="2.81"/></g><g class="cls-2"><circle class="cls-6" cx="265.59" cy="196.46" r="2.81"/></g><g class="cls-2"><circle class="cls-7" cx="252.6" cy="196.46" r="2.81"/></g><g class="cls-2"><circle class="cls-5" cx="450.22" cy="862.31" r="2.81"/></g><g class="cls-2"><circle class="cls-6" cx="467.53" cy="862.31" r="2.81"/></g><g class="cls-2"><circle class="cls-7" cx="464.64" cy="862.31" r="2.81"/></g><g class="cls-2"><circle class="cls-5" cx="432.91" cy="618.7" r="2.81"/></g><g class="cls-2"><circle class="cls-6" cx="401.17" cy="618.7" r="2.81"/></g><g class="cls-2"><circle class="cls-7" cx="432.91" cy="618.7" r="2.81"/></g><g class="cls-2"><circle class="cls-5" cx="445.89" cy="716.15" r="2.81"/></g><g class="cls-2"><circle class="cls-6" cx="444.45" cy="716.15" r="2.81"/></g><g class="cls-2"><circle class="cls-7" cx="445.89" cy="716.15" r="2.81"/></g><g class="cls-2"><circle class="cls-5" cx="457.43" cy="797.35" r="2.81"/></g><g class="cls-2"><circle class="cls-6" cx="404.06" cy="797.35" r="2.81"/></g><g class="cls-2"><circle class="cls-7" cx="471.85" cy="797.35" r="2.81"/></g><g class="cls-2"><circle class="cls-5" cx="464.64" cy="829.83" r="2.81"/></g><g class="cls-2"><circle class="cls-6" cx="460.31" cy="829.83" r="2.81"/></g><g class="cls-2"><circle class="cls-7" cx="435.79" cy="829.83" r="2.81"/></g><g class="cls-2"><circle class="cls-5" cx="412.71" cy="488.78" r="2.81"/></g><g class="cls-2"><circle class="cls-6" cx="428.58" cy="488.78" r="2.81"/></g><g class="cls-2"><circle class="cls-7" cx="355.02" cy="488.78" r="2.81"/></g><g class="cls-2"><circle class="cls-5" cx="473.3" cy="764.87" r="2.81"/></g><g class="cls-2"><circle class="cls-6" cx="453.1" cy="764.87" r="2.81"/></g><g class="cls-2"><circle class="cls-7" cx="444.45" cy="764.87" r="2.81"/></g><g class="cls-2"><circle class="cls-5" cx="458.87" cy="1008.47" r="2.81"/></g><g class="cls-2"><circle class="cls-6" cx="476.18" cy="1008.47" r="2.81"/></g><g class="cls-2"><circle class="cls-7" cx="473.3" cy="1008.47" r="2.81"/></g><g class="cls-2"><circle class="cls-5" cx="466.08" cy="878.55" r="2.81"/></g><g class="cls-2"><circle class="cls-6" cx="466.08" cy="878.55" r="2.81"/></g><g class="cls-2"><circle class="cls-7" cx="451.66" cy="878.55" r="2.81"/></g><g class="cls-2"><circle class="cls-5" cx="518.01" cy="1057.19" r="2.81"/></g><g class="cls-2"><circle class="cls-6" cx="522.34" cy="1057.19" r="2.81"/></g><g class="cls-2"><circle class="cls-7" cx="518.01" cy="1057.19" r="2.81"/></g><g class="cls-2"><circle class="cls-5" cx="468.97" cy="943.51" r="2.81"/></g><g class="cls-2"><circle class="cls-6" cx="461.76" cy="943.51" r="2.81"/></g><g class="cls-2"><circle class="cls-7" cx="483.39" cy="943.51" r="2.81"/></g><g class="cls-2"><circle class="cls-5" cx="473.3" cy="1024.71" r="2.81"/></g><g class="cls-2"><circle class="cls-6" cx="450.22" cy="1024.71" r="2.81"/></g><g class="cls-2"><circle class="cls-7" cx="473.3" cy="1024.71" r="2.81"/></g><g class="cls-2"><circle class="cls-5" cx="473.3" cy="992.23" r="2.81"/></g><g class="cls-2"><circle class="cls-6" cx="471.85" cy="992.23" r="2.81"/></g><g class="cls-2"><circle class="cls-7" cx="473.3" cy="992.23" r="2.81"/></g><g class="cls-2"><circle class="cls-8" cx="541.09" cy="992.23" r="2.81"/></g><g class="cls-2"><circle class="cls-5" cx="422.81" cy="537.5" r="2.81"/></g><g class="cls-2"><circle class="cls-6" cx="422.81" cy="537.5" r="2.81"/></g><g class="cls-2"><circle class="cls-7" cx="422.81" cy="537.5" r="2.81"/></g><g class="cls-2"><circle class="cls-8" cx="477.62" cy="537.5" r="2.81"/></g><g class="cls-2"><circle class="cls-5" cx="393.96" cy="407.58" r="2.81"/></g><g class="cls-2"><circle class="cls-6" cx="389.63" cy="407.58" r="2.81"/></g><g class="cls-2"><circle class="cls-7" cx="422.81" cy="407.58" r="2.81"/></g><g class="cls-2"><circle class="cls-8" cx="412.71" cy="407.58" r="2.81"/></g><g class="cls-2"><circle class="cls-5" cx="412.71" cy="505.02" r="2.81"/></g><g class="cls-2"><circle class="cls-6" cx="425.7" cy="505.02" r="2.81"/></g><g class="cls-2"><circle class="cls-7" cx="369.44" cy="505.02" r="2.81"/></g><g class="cls-2"><circle class="cls-8" cx="479.07" cy="505.02" r="2.81"/></g><g class="cls-2"><circle class="cls-5" cx="424.25" cy="634.95" r="2.81"/></g><g class="cls-2"><circle class="cls-6" cx="443" cy="634.95" r="2.81"/></g><g class="cls-2"><circle class="cls-7" cx="409.83" cy="634.95" r="2.81"/></g><g class="cls-2"><circle class="cls-8" cx="493.49" cy="634.95" r="2.81"/></g><g class="cls-2"><circle class="cls-5" cx="408.39" cy="456.3" r="2.81"/></g><g class="cls-2"><circle class="cls-6" cx="415.6" cy="456.3" r="2.81"/></g><g class="cls-2"><circle class="cls-7" cx="393.96" cy="456.3" r="2.81"/></g><g class="cls-2"><circle class="cls-8" cx="418.48" cy="456.3" r="2.81"/></g><g class="cls-2"><circle class="cls-5" cx="453.1" cy="781.11" r="2.81"/></g><g class="cls-2"><circle class="cls-6" cx="457.43" cy="781.11" r="2.81"/></g><g class="cls-2"><circle class="cls-7" cx="453.1" cy="781.11" r="2.81"/></g><g class="cls-2"><circle class="cls-8" cx="484.83" cy="781.11" r="2.81"/></g><g class="cls-2"><circle class="cls-5" cx="477.62" cy="1040.95" r="2.81"/></g><g class="cls-2"><circle class="cls-6" cx="468.97" cy="1040.95" r="2.81"/></g><g class="cls-2"><circle class="cls-7" cx="434.35" cy="1040.95" r="2.81"/></g><g class="cls-2"><circle class="cls-8" cx="493.49" cy="1040.95" r="2.81"/></g><g class="cls-2"><circle class="cls-5" cx="490.6" cy="1073.43" r="2.81"/></g><g class="cls-2"><circle class="cls-6" cx="492.05" cy="1073.43" r="2.81"/></g><g class="cls-2"><circle class="cls-7" cx="447.33" cy="1073.43" r="2.81"/></g><g class="cls-2"><circle class="cls-8" cx="519.45" cy="1073.43" r="2.81"/></g><g class="cls-2"><circle class="cls-5" cx="382.42" cy="391.34" r="2.81"/></g><g class="cls-2"><circle class="cls-6" cx="404.06" cy="391.34" r="2.81"/></g><g class="cls-2"><circle class="cls-7" cx="396.85" cy="391.34" r="2.81"/></g><g class="cls-2"><circle class="cls-8" cx="411.27" cy="391.34" r="2.81"/></g><g class="cls-2"><circle class="cls-5" cx="401.17" cy="358.86" r="2.81"/></g><g class="cls-2"><circle class="cls-6" cx="395.4" cy="358.86" r="2.81"/></g><g class="cls-2"><circle class="cls-7" cx="386.75" cy="358.86" r="2.81"/></g><g class="cls-2"><circle class="cls-8" cx="401.17" cy="358.86" r="2.81"/></g><g class="cls-2"><circle class="cls-5" cx="444.45" cy="651.19" r="2.81"/></g><g class="cls-2"><circle class="cls-6" cx="437.23" cy="651.19" r="2.81"/></g><g class="cls-2"><circle class="cls-7" cx="401.17" cy="651.19" r="2.81"/></g><g class="cls-2"><circle class="cls-8" cx="434.35" cy="651.19" r="2.81"/></g><g class="cls-2"><circle class="cls-5" cx="189.14" cy="180.22" r="2.81"/></g><g class="cls-2"><circle class="cls-6" cx="209.33" cy="180.22" r="2.81"/></g><g class="cls-2"><circle class="cls-7" cx="203.56" cy="180.22" r="2.81"/></g><g class="cls-2"><circle class="cls-5" cx="447.33" cy="683.67" r="2.81"/></g><g class="cls-2"><circle class="cls-6" cx="440.12" cy="683.67" r="2.81"/></g><g class="cls-2"><circle class="cls-7" cx="432.91" cy="683.67" r="2.81"/></g><g class="cls-2"><circle class="cls-5" cx="405.5" cy="472.54" r="2.81"/></g><g class="cls-2"><circle class="cls-6" cx="412.71" cy="472.54" r="2.81"/></g><g class="cls-2"><circle class="cls-7" cx="463.2" cy="472.54" r="2.81"/></g><g class="cls-2"><circle class="cls-5" cx="395.4" cy="310.14" r="2.81"/></g><g class="cls-2"><circle class="cls-6" cx="356.46" cy="310.14" r="2.81"/></g><g class="cls-2"><circle class="cls-7" cx="395.4" cy="310.14" r="2.81"/></g><g class="cls-2"><circle class="cls-5" cx="379.54" cy="212.7" r="2.81"/></g><g class="cls-2"><circle class="cls-6" cx="412.71" cy="212.7" r="2.81"/></g><g class="cls-2"><circle class="cls-7" cx="379.54" cy="212.7" r="2.81"/></g><g class="cls-2"><circle class="cls-5" cx="468.97" cy="959.75" r="2.81"/></g><g class="cls-2"><circle class="cls-6" cx="471.85" cy="959.75" r="2.81"/></g><g class="cls-2"><circle class="cls-7" cx="411.27" cy="959.75" r="2.81"/></g><g class="cls-2"><circle class="cls-5" cx="470.41" cy="569.98" r="2.81"/></g><g class="cls-2"><circle class="cls-6" cx="424.25" cy="569.98" r="2.81"/></g><g class="cls-2"><circle class="cls-7" cx="412.71" cy="569.98" r="2.81"/></g><g class="cls-2"><circle class="cls-5" cx="432.91" cy="602.46" r="2.81"/></g><g class="cls-2"><circle class="cls-6" cx="499.26" cy="602.46" r="2.81"/></g><g class="cls-2"><circle class="cls-7" cx="404.06" cy="602.46" r="2.81"/></g><g class="cls-2"><circle class="cls-5" cx="445.89" cy="375.1" r="2.81"/></g><g class="cls-2"><circle class="cls-6" cx="399.73" cy="375.1" r="2.81"/></g><g class="cls-2"><circle class="cls-7" cx="301.65" cy="375.1" r="2.81"/></g><g class="cls-2"><circle class="cls-5" cx="466.08" cy="894.79" r="2.81"/></g><g class="cls-2"><circle class="cls-6" cx="480.51" cy="894.79" r="2.81"/></g><g class="cls-2"><circle class="cls-7" cx="466.08" cy="894.79" r="2.81"/></g><g class="cls-2"><circle class="cls-5" cx="424.25" cy="423.82" r="2.81"/></g><g class="cls-2"><circle class="cls-6" cx="391.08" cy="423.82" r="2.81"/></g><g class="cls-2"><circle class="cls-7" cx="409.83" cy="423.82" r="2.81"/></g><g class="cls-2"><circle class="cls-5" cx="382.42" cy="277.66" r="2.81"/></g><g class="cls-2"><circle class="cls-6" cx="368" cy="277.66" r="2.81"/></g><g class="cls-2"><circle class="cls-7" cx="425.7" cy="277.66" r="2.81"/></g><g class="cls-2"><circle class="cls-5" cx="419.93" cy="521.26" r="2.81"/></g><g class="cls-2"><circle class="cls-6" cx="419.93" cy="521.26" r="2.81"/></g><g class="cls-2"><circle class="cls-7" cx="405.5" cy="521.26" r="2.81"/></g><g class="cls-2"><circle class="cls-5" cx="430.02" cy="586.22" r="2.81"/></g><g class="cls-2"><circle class="cls-6" cx="386.75" cy="586.22" r="2.81"/></g><g class="cls-2"><circle class="cls-7" cx="430.02" cy="586.22" r="2.81"/></g><g class="cls-2"><circle class="cls-5" cx="428.58" cy="553.74" r="2.81"/></g><g class="cls-2"><circle class="cls-6" cx="424.25" cy="553.74" r="2.81"/></g><g class="cls-2"><circle class="cls-7" cx="370.88" cy="553.74" r="2.81"/></g><g class="cls-2"><circle class="cls-5" cx="379.54" cy="228.94" r="2.81"/></g><g class="cls-2"><circle class="cls-6" cx="331.94" cy="228.94" r="2.81"/></g><g class="cls-2"><circle class="cls-7" cx="379.54" cy="228.94" r="2.81"/></g><g class="cls-2"><circle class="cls-5" cx="432.91" cy="293.9" r="2.81"/></g><g class="cls-2"><circle class="cls-6" cx="375.21" cy="293.9" r="2.81"/></g><g class="cls-2"><circle class="cls-7" cx="389.63" cy="293.9" r="2.81"/></g><g class="cls-2"><circle class="cls-5" cx="412.71" cy="342.62" r="2.81"/></g><g class="cls-2"><circle class="cls-6" cx="386.75" cy="342.62" r="2.81"/></g><g class="cls-2"><circle class="cls-7" cx="398.29" cy="342.62" r="2.81"/></g><g class="cls-2"><circle class="cls-5" cx="356.46" cy="245.18" r="2.81"/></g><g class="cls-2"><circle class="cls-6" cx="380.98" cy="245.18" r="2.81"/></g><g class="cls-2"><circle class="cls-7" cx="399.73" cy="245.18" r="2.81"/></g><g class="cls-2"><circle class="cls-5" cx="437.23" cy="667.43" r="2.81"/></g><g class="cls-2"><circle class="cls-6" cx="376.65" cy="667.43" r="2.81"/></g><g class="cls-2"><circle class="cls-7" cx="437.23" cy="667.43" r="2.81"/></g><g class="cls-2"><circle class="cls-6" cx="458.87" cy="813.59" r="2.81"/></g><g class="cls-2"><circle class="cls-6" cx="549.74" cy="748.63" r="2.81"/></g><g class="cls-2"><circle class="cls-6" cx="409.83" cy="440.06" r="2.81"/></g><g class="cls-2"><circle class="cls-6" cx="530.99" cy="975.99" r="2.81"/></g><g class="cls-2"><circle class="cls-6" cx="382.42" cy="261.42" r="2.81"/></g><g class="cls-2"><line class="cls-9" x1="500.7" y1="1083.17" x2="500.7" y2="170.48"/></g><g class="cls-10"><text class="cls-11" transform="translate(173.6 165.1)">-20 百分点</text></g><g class="cls-10"><text class="cls-11" transform="translate(319.62 165.1)">-10 百分点</text></g><g class="cls-10"><text class="cls-11" transform="translate(471.14 165.1)">0 百分点</text></g><g class="cls-10"><text class="cls-11" transform="translate(612.67 165.1)">10 百分点</text></g><g class="cls-10"><text class="cls-12" transform="translate(71.86 1077)">乔治亚州</text></g><g class="cls-10"><text class="cls-12" transform="translate(61.86 1060.76)">科罗拉多州</text></g><g class="cls-10"><text class="cls-12" transform="translate(61.86 1044.52)">亚利桑那州</text></g><g class="cls-10"><text class="cls-12" transform="translate(51.86 1028.28)">新罕布什尔州</text></g><g class="cls-10"><text class="cls-12" transform="translate(81.86 1012.04)">缅因州</text></g><g class="cls-10"><text class="cls-12" transform="translate(61.86 995.8)">明尼苏达州</text></g><g class="cls-10"><text class="cls-12" transform="translate(81.8 979.56)">缅因-1</text></g><g class="cls-10"><text class="cls-12" transform="translate(71.86 963.32)">堪萨斯州</text></g><g class="cls-10"><text class="cls-12" transform="translate(61.86 947.08)">弗吉尼亚州</text></g><g class="cls-10"><text class="cls-12" transform="translate(61.86 930.84)">马萨诸塞州</text></g><g class="cls-10"><text class="cls-12" transform="translate(51.86 914.6)">加利福尼亚州</text></g><g class="cls-10"><text class="cls-12" transform="translate(51.86 898.36)">内布拉斯加州</text></g><g class="cls-10"><text class="cls-12" transform="translate(61.86 882.12)">新墨西哥州</text></g><g class="cls-10"><text class="cls-12" transform="translate(71.86 865.88)">华盛顿州</text></g><g class="cls-10"><text class="cls-12" transform="translate(58.91 849.64)">华盛顿 D.C.</text></g><g class="cls-10"><text class="cls-12" transform="translate(71.86 833.4)">新泽西州</text></g><g class="cls-10"><text class="cls-12" transform="translate(51.8 817.16)">内布拉斯加-1</text></g><g class="cls-10"><text class="cls-12" transform="translate(71.86 800.92)">特拉华州</text></g><g class="cls-10"><text class="cls-12" transform="translate(51.86 784.68)">北卡罗来纳州</text></g><g class="cls-10"><text class="cls-12" transform="translate(71.86 768.44)">俄勒冈州</text></g><g class="cls-10"><text class="cls-12" transform="translate(49.81 752.2)">内布拉斯加-2</text></g><g class="cls-10"><text class="cls-12" transform="translate(71.86 735.96)">佛蒙特州</text></g><g class="cls-10"><text class="cls-12" transform="translate(61.86 719.72)">康涅狄格州</text></g><g class="cls-10"><text class="cls-12" transform="translate(71.86 703.48)">马里兰州</text></g><g class="cls-10"><text class="cls-12" transform="translate(51.86 687.24)">南卡罗来纳州</text></g><g class="cls-10"><text class="cls-12" transform="translate(71.86 671)">怀俄明州</text></g><g class="cls-10"><text class="cls-12" transform="translate(61.86 654.76)">得克萨斯州</text></g><g class="cls-10"><text class="cls-12" transform="translate(51.86 638.52)">宾夕法尼亚州</text></g><g class="cls-10"><text class="cls-12" transform="translate(71.86 622.27)">罗得岛州</text></g><g class="cls-10"><text class="cls-12" transform="translate(51.86 606.03)">路易斯安那州</text></g><g class="cls-10"><text class="cls-12" transform="translate(71.86 589.79)">肯塔基州</text></g><g class="cls-10"><text class="cls-12" transform="translate(61.86 573.55)">印第安纳州</text></g><g class="cls-10"><text class="cls-12" transform="translate(71.86 557.31)">阿肯色州</text></g><g class="cls-10"><text class="cls-12" transform="translate(71.86 541.07)">密歇根州</text></g><g class="cls-10"><text class="cls-12" transform="translate(61.86 524.83)">阿拉巴马州</text></g><g class="cls-10"><text class="cls-12" transform="translate(71.86 508.59)">内华达州</text></g><g class="cls-10"><text class="cls-12" transform="translate(61.86 492.35)">伊利诺斯州</text></g><g class="cls-10"><text class="cls-12" transform="translate(71.86 476.11)">密苏里州</text></g><g class="cls-10"><text class="cls-12" transform="translate(61.86 459.87)">佛罗里达州</text></g><g class="cls-10"><text class="cls-12" transform="translate(49.81 443.63)">内布拉斯加-3</text></g><g class="cls-10"><text class="cls-12" transform="translate(71.86 427.39)">田纳西州</text></g><g class="cls-10"><text class="cls-12" transform="translate(61.86 411.15)">威斯康辛州</text></g><g class="cls-10"><text class="cls-12" transform="translate(71.86 394.91)">爱荷华州</text></g><g class="cls-10"><text class="cls-12" transform="translate(81.86 378.67)">犹他州</text></g><g class="cls-10"><text class="cls-12" transform="translate(71.86 362.43)">俄亥俄州</text></g><g class="cls-10"><text class="cls-12" transform="translate(51.86 346.19)">俄克拉荷马州</text></g><g class="cls-10"><text class="cls-12" transform="translate(71.86 329.95)">夏威夷州</text></g><g class="cls-10"><text class="cls-12" transform="translate(71.86 313.71)">蒙大拿州</text></g><g class="cls-10"><text class="cls-12" transform="translate(71.86 297.47)">爱达荷州</text></g><g class="cls-10"><text class="cls-12" transform="translate(61.86 281.23)">南达科他州</text></g><g class="cls-10"><text class="cls-12" transform="translate(79.81 264.99)">缅因-2</text></g><g class="cls-10"><text class="cls-12" transform="translate(51.86 248.75)">西弗吉尼亚州</text></g><g class="cls-10"><text class="cls-12" transform="translate(61.86 232.51)">北达科他州</text></g><g class="cls-10"><text class="cls-12" transform="translate(61.86 216.27)">密西西比州</text></g><g class="cls-10"><text class="cls-12" transform="translate(81.86 200.03)">纽约州</text></g><g class="cls-10"><text class="cls-12" transform="translate(61.86 183.79)">阿拉斯加州</text></g><g class="cls-10"><text class="cls-11" transform="translate(173.68 1098.46)">-20 百分点</text></g><g class="cls-10"><text class="cls-11" transform="translate(319.42 1098.46)">-10 百分点</text></g><g class="cls-10"><text class="cls-11" transform="translate(471.2 1098.46)">0 百分点</text></g><g class="cls-10"><text class="cls-11" transform="translate(612.44 1098.46)">10 百分点</text></g><g class="cls-10"><circle class="cls-5" cx="256.16" cy="124.63" r="2.81"/></g><g class="cls-13"><circle class="cls-6" cx="338.99" cy="124.63" r="2.81"/></g><g class="cls-14"><circle class="cls-7" cx="395.51" cy="124.63" r="2.81"/></g><g class="cls-15"><circle class="cls-8" cx="470.53" cy="124.63" r="2.81"/></g><g class="cls-10"><text class="cls-16" transform="translate(1.21 70.42)">截至2020年11月9日；阿拉斯加、纽约等州仍在计票</text></g><g class="cls-17"><text class="cls-18" y="-4.69"/></g><rect id="hat" width="60" height="4"/><g id="copyright" class="cls-18"><text class="cls-11" transform="translate(2.18 1143.31)">© FT中文</text></g><text class="cls-19" transform="translate(1.18 1122.63)">制图：傅亦沁</text><text class="cls-20" transform="translate(0 38.86)">拜登实际优势与预测优势之差（2020年美国总统选举）</text><text class="cls-21" transform="translate(262.03 129.86)"><tspan xml:space="preserve">经济学人    538     YouGov   RealClearPolitics</tspan></text></svg>